<?xml version="1.0" standalone="no"?>
<!DOCTYPE svg PUBLIC "-//W3C//DTD SVG 20010904//EN"
 "http://www.w3.org/TR/2001/REC-SVG-20010904/DTD/svg10.dtd">
<svg version="1.0" xmlns="http://www.w3.org/2000/svg"
 width="900.000000pt" height="900.000000pt" viewBox="0 0 900.000000 900.000000"
 preserveAspectRatio="xMidYMid meet">

<g transform="translate(0.000000,900.000000) scale(0.100000,-0.100000)"
fill="#000000" stroke="none">
<path d="M3268 7145 c-33 -11 -67 -34 -107 -73 -63 -61 -81 -89 -81 -122 0
-12 -7 -29 -16 -37 -8 -9 -13 -24 -11 -35 3 -10 1 -16 -4 -12 -5 3 -9 -5 -10
-18 -1 -38 -10 -102 -14 -107 -3 -2 0 -10 6 -18 6 -7 7 -13 2 -13 -9 0 -10
-160 -1 -288 5 -70 -4 -85 -59 -97 -38 -8 -56 -26 -47 -49 8 -20 14 -20 64 0
24 10 45 13 50 8 7 -8 11 -36 20 -144 1 -8 13 -85 26 -170 14 -85 29 -186 35
-224 5 -38 12 -80 16 -94 6 -24 4 -25 -31 -18 -50 9 -48 -13 3 -42 30 -17 40
-30 45 -56 4 -19 16 -46 28 -61 17 -22 23 -24 34 -13 8 8 15 34 17 58 2 44 2
44 47 52 59 11 123 29 134 40 6 4 21 8 34 8 66 0 288 172 351 272 44 69 85
193 84 254 0 83 -77 214 -124 214 -10 0 -19 4 -19 9 0 4 -26 17 -57 27 -45 15
-88 19 -188 19 -71 0 -148 -2 -170 -5 -40 -5 -40 -5 -43 32 -3 31 3 44 36 80
112 124 203 278 221 374 14 70 5 163 -17 193 -37 50 -69 65 -140 68 -39 2 -86
-4 -114 -12z m155 -26 c53 -14 77 -56 77 -135 0 -109 -52 -230 -164 -380 l-51
-69 -5 197 c-4 169 -7 200 -22 215 -10 9 -20 14 -24 11 -3 -4 -5 -112 -5 -241
l1 -235 -42 -36 c-56 -48 -106 -77 -113 -66 -13 21 -6 346 8 415 37 175 85
252 189 304 66 33 92 37 151 20z m-198 -718 c-6 -5 -21 -12 -35 -16 l-25 -7
24 26 c17 18 28 23 35 16 6 -6 6 -13 1 -19z m397 -25 c78 -17 112 -33 154 -75
79 -78 65 -225 -38 -386 -29 -46 -142 -155 -197 -190 -21 -13 -65 -35 -97 -50
-37 -16 -48 -24 -29 -20 l30 5 -29 -16 c-19 -11 -31 -13 -35 -5 -5 7 -22 6
-55 -4 -80 -24 -79 -25 -72 63 4 42 9 165 11 272 7 313 14 388 36 395 74 24
233 29 321 11z m-397 -162 c0 -206 -13 -526 -23 -559 -8 -28 -10 -25 -26 43
-39 173 -70 370 -82 533 l-7 86 59 15 c33 8 64 14 69 13 6 -1 10 -53 10 -131z"/>
<path d="M4282 6515 c-38 -20 -81 -66 -76 -80 3 -7 -13 -27 -36 -45 -22 -17
-39 -37 -38 -44 5 -21 -24 -74 -43 -79 -23 -6 -23 -9 1 82 27 102 26 117 -10
136 -16 8 -31 15 -33 15 -11 0 -67 -265 -72 -339 -2 -25 -8 -84 -14 -131 -13
-104 -14 -190 -2 -190 5 0 11 -9 14 -20 6 -22 37 -28 38 -7 1 48 14 110 31
157 50 136 59 163 56 179 -2 10 -13 -2 -28 -32 -32 -65 -38 -42 -7 25 14 29
37 79 51 111 14 32 41 75 59 95 19 20 53 58 77 85 24 26 45 45 47 43 3 -3 -7
-17 -22 -33 -55 -58 -175 -243 -175 -270 0 -12 22 1 28 16 12 33 147 230 160
236 10 3 11 -4 6 -30 -4 -23 -2 -35 5 -35 6 0 10 3 9 8 -1 4 10 30 25 59 15
29 27 55 27 57 0 7 -43 46 -49 45 -3 -1 -16 -7 -29 -14z m-22 -35 c0 -5 -5
-10 -11 -10 -5 0 -7 5 -4 10 3 6 8 10 11 10 2 0 4 -4 4 -10z"/>
<path d="M4577 6469 c-57 -30 -162 -143 -201 -218 -59 -112 -95 -283 -75 -354
12 -46 51 -81 81 -74 37 10 131 80 151 112 53 86 87 149 87 161 0 8 4 14 9 14
4 0 11 -28 14 -62 7 -75 47 -141 90 -146 18 -2 29 -11 33 -27 3 -12 18 -35 34
-50 22 -21 35 -26 54 -21 14 3 26 11 26 16 0 5 27 38 61 72 34 35 82 90 107
123 61 80 104 125 120 125 7 0 10 5 7 10 -3 6 1 13 9 16 9 3 16 12 16 20 0 13
110 125 130 132 4 2 -7 -46 -25 -105 -58 -193 -64 -234 -45 -303 13 -49 71
-110 103 -110 22 0 26 -4 25 -29 -1 -16 5 -43 12 -60 11 -28 17 -31 56 -31 53
0 143 30 181 60 16 12 52 44 82 72 l54 50 -9 -39 c-15 -66 -11 -146 9 -177 17
-26 23 -28 59 -22 41 7 142 46 135 52 -2 2 -30 -1 -62 -7 -83 -15 -105 -7
-105 37 0 60 88 207 200 335 64 72 76 101 45 107 -11 2 -33 15 -50 27 -51 40
-113 50 -181 30 -79 -23 -159 -65 -222 -116 -57 -47 -138 -149 -168 -212 -37
-79 -104 -51 -104 43 0 58 30 176 75 297 43 114 45 159 10 175 -18 8 -31 8
-52 -1 -41 -17 -217 -191 -308 -306 -103 -128 -192 -222 -201 -212 -10 10 49
156 92 228 19 31 34 60 34 64 0 3 14 27 31 51 17 25 46 73 65 106 31 54 34 65
24 89 -26 62 -66 40 -123 -71 -19 -36 -61 -117 -94 -180 -33 -63 -68 -136 -78
-162 -16 -42 -21 -48 -47 -48 -57 0 -60 74 -12 265 14 55 36 124 49 154 14 29
25 66 25 81 0 25 -3 28 -52 34 -89 10 -141 6 -181 -15z m153 -30 c0 -22 -60
-179 -94 -247 -46 -90 -123 -210 -155 -241 -41 -38 -103 -81 -118 -81 -28 0
-9 152 34 260 53 133 122 213 238 279 74 41 95 48 95 30z m591 -256 c-12 -20
-14 -14 -5 12 4 9 9 14 11 11 3 -2 0 -13 -6 -23z m-18 -65 c-3 -18 -10 -37
-15 -43 -7 -7 -8 -1 -3 15 3 14 9 33 11 43 9 29 14 19 7 -15z m672 22 c9 -14
-104 -149 -182 -216 -166 -145 -209 -170 -337 -199 -28 -6 -28 -6 -21 32 10
55 88 168 167 245 94 90 189 130 355 147 6 0 15 -3 18 -9z"/>
<path d="M6698 5680 c-103 -85 -179 -304 -214 -615 -20 -177 -20 -653 0 -800
24 -177 36 -226 132 -533 13 -42 13 -44 -34 -135 -26 -51 -70 -122 -97 -157
-58 -77 -226 -262 -232 -256 -3 2 0 39 6 83 19 139 20 156 27 323 17 428 -64
759 -270 1097 -194 320 -447 562 -770 738 -126 68 -235 107 -396 142 -115 24
-552 30 -698 9 -423 -62 -904 -326 -1153 -632 -221 -272 -337 -572 -391 -1009
-13 -108 -15 -490 -5 -982 2 -111 1 -205 -2 -209 -3 -3 -11 43 -17 103 -7 59
-22 187 -35 283 -18 140 -23 222 -23 410 0 254 4 284 73 570 57 232 65 310 64
595 -3 427 -15 649 -42 718 -7 19 -18 27 -35 27 -40 0 -46 -45 -46 -357 0
-173 -4 -283 -10 -283 -19 0 -23 80 -16 335 5 163 4 270 -3 286 -35 92 -101
60 -118 -58 l-7 -48 -8 55 c-20 136 -112 149 -137 19 l-9 -44 -1 41 c-1 49
-29 91 -55 81 -22 -9 -51 -78 -64 -157 -6 -36 -14 -162 -17 -280 -4 -118 -13
-288 -20 -378 -18 -231 -11 -282 73 -502 29 -77 42 -127 46 -185 4 -44 9 -99
12 -122 7 -54 -4 -54 -34 -2 -54 95 -151 171 -262 209 -98 33 -241 31 -340 -5
-119 -43 -259 -155 -305 -244 -11 -23 -22 -31 -33 -27 -9 3 -43 14 -74 26
-204 72 -421 45 -628 -80 -60 -37 -70 -46 -70 -71 l0 -28 63 43 c76 54 122 76
212 107 60 20 88 24 195 23 109 -1 134 -5 200 -29 41 -15 78 -30 82 -34 4 -3
-4 -44 -18 -90 -60 -207 -7 -423 117 -475 132 -54 232 66 201 242 -17 102 -63
182 -154 267 l-78 73 43 59 c76 102 158 163 273 204 85 30 227 29 307 -1 124
-47 241 -167 280 -289 47 -146 53 -394 17 -726 -23 -218 -33 -513 -21 -624 25
-238 96 -354 214 -354 90 0 166 99 192 251 58 330 66 488 50 1077 -20 759 93
1199 404 1569 255 303 726 559 1136 616 96 13 463 14 566 0 174 -22 303 -61
451 -135 364 -184 678 -504 871 -890 131 -261 191 -537 186 -855 -3 -191 -27
-434 -50 -507 -18 -58 -263 -239 -454 -336 -96 -49 -145 -70 -145 -61 0 3 17
28 38 57 148 204 246 427 294 670 17 91 22 147 21 297 0 162 -3 202 -27 318
-61 301 -162 500 -339 668 -114 109 -215 180 -355 249 -284 139 -465 181 -748
172 -245 -7 -421 -51 -649 -162 -573 -277 -967 -835 -1003 -1416 -31 -529 149
-1043 467 -1331 121 -110 323 -236 483 -302 151 -63 243 -83 491 -111 260 -28
431 -18 642 40 526 143 979 475 1200 880 39 72 115 273 115 305 0 8 49 63 108
124 123 126 220 252 265 344 17 34 34 62 38 62 4 0 13 -33 20 -72 17 -99 15
-318 -5 -458 -71 -505 -75 -753 -15 -928 53 -155 172 -150 244 9 54 120 67
225 62 494 -2 132 -10 337 -17 456 l-14 216 24 79 c56 190 113 297 215 399 98
98 162 128 283 133 84 4 98 1 146 -22 94 -46 94 -46 33 -167 -57 -113 -77
-181 -77 -265 0 -105 53 -174 121 -159 46 10 103 74 129 141 18 50 21 74 18
156 -3 88 -7 103 -41 169 l-36 71 82 82 c185 183 380 272 620 283 105 5 117 8
117 24 0 39 -229 19 -382 -31 -138 -46 -326 -172 -420 -280 l-44 -52 -52 36
c-29 19 -70 40 -90 46 -58 16 -183 12 -243 -7 -126 -41 -252 -163 -334 -326
l-47 -92 7 80 c3 44 11 136 17 205 16 165 15 786 0 910 -17 136 -30 256 -42
405 -32 385 -55 506 -103 540 -34 24 -78 18 -119 -15z m143 -117 c8 -34 12
-101 10 -163 -10 -363 -3 -658 20 -824 10 -75 -1 -154 -47 -340 -45 -178 -160
-494 -175 -479 -13 13 -87 272 -108 378 -53 265 -55 744 -6 1049 41 253 125
445 210 482 28 12 32 12 57 -16 16 -17 31 -51 39 -87z m-4510 -160 c8 -26 10
-91 5 -232 -9 -292 11 -418 62 -368 15 16 18 49 23 290 6 275 17 363 42 338 9
-9 12 -97 12 -314 0 -327 5 -358 53 -365 45 -7 52 38 52 350 0 182 3 279 10
272 16 -16 31 -320 32 -634 1 -328 -2 -360 -73 -668 -64 -280 -72 -348 -66
-582 4 -141 15 -282 36 -450 39 -307 54 -532 41 -601 -13 -69 -73 -192 -106
-218 -36 -28 -55 -26 -86 6 -100 107 -138 375 -102 713 26 241 26 564 0 675
-11 49 -21 147 -26 255 -8 187 -7 179 -94 417 -26 71 -48 194 -41 236 2 12 6
67 10 122 4 55 9 108 11 118 2 10 4 89 5 175 3 258 25 462 51 478 7 5 8 -43 2
-157 -10 -183 -8 -388 4 -434 5 -19 16 -31 28 -33 36 -5 46 39 50 228 7 290
12 374 23 403 13 34 26 28 42 -20z m-102 -354 c-1 -87 -5 -145 -10 -137 -13
20 -6 288 8 288 2 0 3 -68 2 -151z m2560 86 c180 -35 420 -135 596 -250 117
-77 277 -236 334 -332 202 -341 259 -807 147 -1194 -49 -168 -105 -292 -194
-429 -76 -118 -141 -199 -173 -215 -101 -53 -564 -147 -1099 -226 -248 -36
-380 -71 -414 -108 -25 -28 -16 -62 23 -88 70 -47 172 -63 386 -59 148 3 189
7 315 36 199 44 334 90 475 160 127 63 202 114 296 203 37 36 75 61 106 71
128 43 376 187 523 305 35 28 65 50 67 48 7 -7 -50 -156 -88 -232 -60 -116
-131 -215 -236 -325 -162 -170 -335 -296 -558 -405 -238 -117 -456 -184 -657
-204 -130 -13 -446 10 -610 44 -214 45 -485 183 -669 342 -67 57 -170 175
-226 258 -245 360 -336 915 -222 1350 70 268 228 533 449 753 302 301 663 478
1055 516 77 8 291 -3 374 -19z m-2412 -87 c-2 -13 -4 -3 -4 22 0 25 2 35 4 23
2 -13 2 -33 0 -45z m4521 -193 l-1 -120 -8 90 c-4 50 -7 126 -7 170 1 75 1 77
8 30 5 -27 8 -104 8 -170z m-4521 113 c-2 -13 -4 -5 -4 17 -1 22 1 32 4 23 2
-10 2 -28 0 -40z m4560 -543 c0 -103 -1 -111 -7 -55 -10 84 -10 246 -1 205 4
-16 8 -84 8 -150z m-29 -413 c4 -253 1 -336 -13 -457 -19 -159 -18 -199 10
-615 17 -267 19 -430 4 -537 -21 -157 -72 -279 -129 -308 -54 -28 -88 9 -122
133 -29 109 -29 402 1 622 52 390 53 404 48 540 -2 74 -12 172 -22 217 l-17
82 42 97 c52 123 121 330 152 456 14 58 27 93 32 88 5 -5 11 -148 14 -318z
m842 -269 c52 -140 7 -327 -87 -364 -95 -36 -114 163 -31 326 12 22 32 57 45
78 30 47 43 40 73 -40z m-6388 -121 c82 -87 125 -197 113 -288 -13 -108 -85
-160 -159 -115 -103 64 -139 295 -71 458 l15 35 28 -20 c15 -11 48 -43 74 -70z
m4043 -1008 c-104 -90 -276 -184 -440 -238 -197 -66 -464 -116 -620 -116 -157
0 -335 46 -335 86 0 36 108 65 430 114 296 44 438 68 585 96 135 26 366 81
374 89 2 3 14 5 25 5 18 -1 15 -6 -19 -36z m-3121 -336 c62 -131 137 -153 219
-65 33 36 38 38 32 17 -31 -102 -83 -160 -144 -160 -99 0 -163 134 -175 370
l-6 105 24 -106 c13 -58 36 -131 50 -161z"/>
<path d="M4611 4798 c179 -128 217 -170 204 -227 -7 -35 -65 -63 -165 -81
-160 -28 -220 -60 -220 -119 0 -39 36 -80 113 -129 80 -51 97 -71 104 -121 5
-38 3 -44 -38 -83 -24 -24 -62 -53 -84 -66 l-40 -23 35 7 c48 8 111 46 149 89
24 28 31 45 31 79 0 36 -6 48 -37 80 -21 21 -66 54 -101 73 -77 43 -122 80
-122 99 0 18 24 28 130 49 163 33 229 67 256 131 17 41 10 75 -26 129 -46 67
-159 145 -212 145 -18 0 -14 -5 23 -32z"/>
<path d="M4576 4700 c53 -62 40 -97 -51 -135 -36 -16 -64 -29 -62 -31 8 -8
144 41 159 57 22 26 9 66 -35 105 -26 23 -28 24 -11 4z"/>
<path d="M4419 4513 c-13 -17 -13 -17 6 -3 11 8 22 16 24 17 2 2 0 3 -6 3 -6
0 -17 -8 -24 -17z"/>
<path d="M4711 4244 c61 -64 83 -107 76 -153 l-5 -36 15 35 c30 69 -1 137 -81
177 l-51 25 46 -48z"/>
<path d="M4744 4008 l-19 -23 23 19 c12 11 22 21 22 23 0 8 -8 2 -26 -19z"/>
<path d="M4227 3963 c18 -2 50 -2 70 0 21 2 7 4 -32 4 -38 0 -55 -2 -38 -4z"/>
<path d="M4133 3953 c9 -2 25 -2 35 0 9 3 1 5 -18 5 -19 0 -27 -2 -17 -5z"/>
<path d="M4003 3934 c-65 -16 -117 -53 -111 -81 9 -45 120 -77 332 -93 153
-12 693 -13 700 -1 3 5 -151 11 -352 14 -263 4 -381 9 -450 21 -201 35 -232
82 -86 132 77 26 61 30 -33 8z"/>
<path d="M4743 3943 c9 -2 23 -2 30 0 6 3 -1 5 -18 5 -16 0 -22 -2 -12 -5z"/>
<path d="M4828 3933 c12 -2 32 -2 45 0 12 2 2 4 -23 4 -25 0 -35 -2 -22 -4z"/>
<path d="M4939 3919 c50 -10 81 -33 65 -49 -5 -5 -27 -14 -49 -19 -39 -10 -39
-10 10 -5 87 10 101 43 28 68 -26 9 -58 16 -72 15 -17 -1 -10 -4 18 -10z"/>
<path d="M5080 3847 c0 -32 0 -32 46 -29 91 8 185 -55 200 -134 10 -55 -3
-123 -32 -161 -35 -47 -93 -73 -175 -80 -38 -3 -69 -10 -69 -16 0 -19 123 -1
175 26 88 44 125 104 125 203 0 101 -52 166 -164 204 -88 30 -106 27 -106 -13z"/>
<path d="M4214 3829 c-6 -10 487 -10 616 -1 48 4 -65 7 -263 8 -191 1 -350 -3
-353 -7z"/>
<path d="M3878 3768 c-7 -19 1 -164 13 -243 6 -38 22 -101 35 -139 13 -39 22
-71 21 -73 -2 -1 -50 -9 -108 -18 -321 -48 -434 -134 -355 -269 59 -101 189
-164 426 -208 156 -29 596 -36 820 -14 497 50 810 153 810 264 0 47 -17 75
-63 104 -83 52 -204 77 -450 94 -48 3 -86 9 -85 12 32 60 73 159 84 202 22 89
32 206 19 237 -10 25 -12 20 -18 -52 -22 -275 -165 -519 -360 -615 -215 -105
-440 -59 -596 124 -50 59 -124 206 -145 288 -19 74 -39 250 -34 288 4 30 -6
42 -14 18z m109 -522 c28 -56 130 -165 193 -206 171 -110 424 -89 597 49 26
21 71 67 98 101 l50 62 100 -7 c242 -16 383 -51 430 -106 77 -93 -28 -159
-345 -219 -544 -102 -1223 -90 -1463 26 -92 44 -127 89 -127 164 0 47 41 92
108 121 54 24 180 46 318 57 15 2 26 -10 41 -42z"/>
<path d="M4012 3070 c0 -14 2 -19 5 -12 2 6 2 18 0 25 -3 6 -5 1 -5 -13z"/>
<path d="M4060 2999 c55 -55 170 -80 361 -77 l144 1 -140 8 c-189 9 -322 40
-381 87 -11 10 -4 1 16 -19z"/>
<path d="M4836 3519 c5 -13 9 -62 9 -109 0 -73 -4 -93 -28 -140 -50 -97 -141
-175 -235 -200 -45 -12 -49 -35 -4 -24 95 24 227 123 278 210 62 105 63 232 3
268 l-31 18 8 -23z"/>
<path d="M5070 3501 c0 -41 107 -42 170 -2 26 17 28 20 10 14 -32 -10 -140
-10 -162 1 -14 6 -18 4 -18 -13z"/>
<path d="M4073 2765 c31 -27 76 -42 157 -49 30 -3 46 -3 35 0 -112 27 -146 39
-161 55 -9 10 -27 19 -38 19 -20 -1 -19 -2 7 -25z"/>
<path d="M4595 2723 c-16 -2 -88 -7 -160 -12 l-130 -8 126 -2 c138 -1 222 7
213 20 -3 5 -8 8 -12 7 -4 0 -20 -3 -37 -5z"/>
</g>
</svg>
